<svg width="50" height="46" viewBox="0 0 50 46" fill="none" xmlns="http://www.w3.org/2000/svg">
<path d="M12.3918 23.073C12.1162 22.9728 11.814 23.1154 11.7133 23.3916C11.6126 23.6673 11.7557 23.9694 12.0314 24.0701C12.0897 24.0914 12.1533 24.102 12.2116 24.102C12.4289 24.102 12.6304 23.9694 12.7099 23.7521C12.8106 23.4764 12.6675 23.1743 12.3918 23.073Z" fill="#0DE2EA"/>
<path d="M17.3855 13.1181C17.1416 12.959 16.813 13.0333 16.6592 13.2824C16.5002 13.5316 16.5744 13.8602 16.8236 14.014C16.9084 14.0723 17.0091 14.0988 17.1045 14.0988C17.2795 14.0988 17.4544 14.0087 17.5551 13.8496C17.7089 13.6005 17.6346 13.2771 17.3855 13.1181Z" fill="#0DE2EA"/>
<path d="M10.0434 32.324C9.75188 32.2922 9.49213 32.5042 9.46562 32.7963C9.43382 33.0878 9.64586 33.3476 9.93742 33.3794C9.95332 33.3794 9.97453 33.3794 9.99043 33.3794C10.2608 33.3794 10.4887 33.178 10.5152 32.9076C10.547 32.615 10.335 32.3499 10.0434 32.324Z" fill="#0DE2EA"/>
<path d="M9.89499 33.909C9.60343 33.8984 9.35428 34.1263 9.34368 34.4179C9.32778 34.7095 9.55572 34.9591 9.84728 34.9692C9.85789 34.9692 9.86319 34.9692 9.87379 34.9692C10.1547 34.9692 10.388 34.7466 10.3986 34.4656C10.4145 34.1687 10.1866 33.9249 9.89499 33.909Z" fill="#0DE2EA"/>
<path d="M21.9126 7.74807C22.0557 7.74807 22.1989 7.68976 22.2996 7.57843C22.501 7.36109 22.4851 7.02712 22.2678 6.82568C22.0557 6.62954 21.7165 6.64544 21.5203 6.85748C21.3189 7.07483 21.3348 7.4088 21.5521 7.61024C21.6528 7.70036 21.7801 7.74807 21.9126 7.74807Z" fill="#0DE2EA"/>
<path d="M20.8577 8.94612C21.0061 8.94612 21.1545 8.8825 21.2605 8.75528C21.4514 8.53263 21.4249 8.19866 21.1969 8.00782C20.9743 7.82228 20.6403 7.84879 20.4495 8.07144C20.2639 8.29408 20.2904 8.62805 20.5131 8.81889C20.6138 8.90371 20.7357 8.94612 20.8577 8.94612Z" fill="#0DE2EA"/>
<path d="M15.8216 14.6607C15.6732 14.9152 15.7527 15.2385 16.0072 15.3869C16.092 15.4347 16.1821 15.4612 16.2775 15.4612C16.4578 15.4612 16.6327 15.3657 16.7334 15.1961C16.8818 14.947 16.797 14.6183 16.5426 14.4699C16.2934 14.3214 15.9701 14.4062 15.8216 14.6607Z" fill="#0DE2EA"/>
<path d="M9.84199 35.5046C9.54513 35.5099 9.31718 35.7543 9.32248 36.0459C9.32778 36.3374 9.56633 36.5648 9.85259 36.5648C9.85789 36.5648 9.85789 36.5648 9.86319 36.5648C10.1548 36.5542 10.388 36.3157 10.3827 36.0241C10.3774 35.7267 10.1335 35.4993 9.84199 35.5046Z" fill="#0DE2EA"/>
<path d="M13.2893 22.1787L17.1866 23.8544L15.2486 17.8742C15.309 17.6643 15.2374 17.4475 15.0673 17.315L15.036 17.2185L14.9724 17.2487C14.7105 17.1284 14.4036 17.2317 14.2737 17.4867C14.2557 17.5222 14.2525 17.5599 14.2429 17.597L8.73987 20.2231L12.3563 21.778C12.3308 21.8129 12.3022 21.8442 12.2858 21.8861C12.1798 22.1565 12.3123 22.4692 12.5826 22.5752C12.6462 22.6017 12.7099 22.6123 12.7788 22.6123C12.9908 22.6123 13.187 22.4851 13.2718 22.2779C13.2845 22.2455 13.2834 22.2121 13.2893 22.1787Z" fill="#0DE2EA"/>
<path d="M11.5331 25.5863C11.5861 25.6022 11.6391 25.6128 11.6921 25.6128C11.9147 25.6128 12.1268 25.4696 12.201 25.2422C12.2911 24.966 12.1374 24.6639 11.8564 24.5738C11.5808 24.4836 11.2786 24.6374 11.1885 24.9183C11.0984 25.1935 11.2521 25.4961 11.5331 25.5863Z" fill="#0DE2EA"/>
<path d="M11.374 26.0952C11.0931 26.0162 10.8015 26.1747 10.722 26.4609C10.6425 26.7419 10.8015 27.0335 11.0825 27.1125C11.1355 27.1284 11.1832 27.1337 11.2309 27.1337C11.4588 27.1337 11.6762 26.9799 11.7398 26.752C11.8193 26.4663 11.655 26.1747 11.374 26.0952Z" fill="#0DE2EA"/>
<path d="M23.3863 6.444C23.5931 6.23726 23.5984 5.90329 23.3916 5.69654C23.1849 5.4845 22.8456 5.4845 22.6389 5.69124C22.4321 5.89799 22.4321 6.23726 22.6389 6.444C22.7396 6.54472 22.8774 6.59773 23.0153 6.59773C23.1478 6.59773 23.2856 6.55002 23.3863 6.444Z" fill="#0DE2EA"/>
<path d="M10.2767 30.7442C9.98511 30.7018 9.71476 30.898 9.67235 31.1895C9.62464 31.4758 9.82608 31.7461 10.1123 31.7939C10.1441 31.7992 10.1707 31.7992 10.1972 31.7992C10.4516 31.7992 10.679 31.6141 10.7167 31.3491C10.7612 31.0591 10.5613 30.7914 10.2767 30.7442Z" fill="#0DE2EA"/>
<path d="M10.9499 27.6325C10.6637 27.5578 10.3774 27.7327 10.3085 28.0189C10.2343 28.3052 10.4092 28.5915 10.6955 28.6604C10.7379 28.6715 10.7803 28.6763 10.8227 28.6763C11.0613 28.6763 11.2786 28.5119 11.3369 28.2681C11.4058 27.9877 11.2309 27.7014 10.9499 27.6325Z" fill="#0DE2EA"/>
<path d="M10.7167 31.3532C10.7167 31.3532 10.7167 31.3532 10.7167 31.348C10.7162 31.3501 10.7172 31.3522 10.7167 31.3532Z" fill="#0DE2EA"/>
<path d="M15.2385 16.7811C15.318 16.8235 15.4028 16.8447 15.493 16.8447C15.6785 16.8447 15.8587 16.744 15.9542 16.5691C16.0973 16.3146 16.0019 15.9913 15.7474 15.8481C15.4877 15.7103 15.1643 15.8057 15.0265 16.0602C14.8833 16.3199 14.9788 16.6433 15.2385 16.7811Z" fill="#0DE2EA"/>
<path d="M23.8157 4.57801C23.5983 4.77415 23.5824 5.10812 23.7786 5.32547C23.8846 5.44209 24.0277 5.5004 24.1709 5.5004C24.2981 5.5004 24.4253 5.45799 24.526 5.36788C24.6283 5.27564 24.6835 5.15159 24.6967 5.02384L26.7483 7.08755L27.0038 3.38261C27.2084 3.20927 27.2556 2.90817 27.0971 2.68552C27.0854 2.66803 27.0679 2.65901 27.0547 2.64364L27.0663 2.47772L26.8315 2.49256C26.7053 2.44962 26.5691 2.45704 26.4419 2.51694L22.4549 2.76875L24.1279 4.45185C24.0166 4.46192 23.9063 4.49797 23.8157 4.57801Z" fill="#0DE2EA"/>
<path d="M30.9191 1.38145C30.9668 1.38145 31.0199 1.37085 31.0676 1.35494C31.3485 1.27543 31.5076 0.978564 31.428 0.697606C31.3432 0.416647 31.0464 0.257614 30.7707 0.342432C30.4844 0.421948 30.3254 0.71881 30.4102 0.999769C30.4791 1.22772 30.6859 1.38145 30.9191 1.38145Z" fill="#0DE2EA"/>
<path d="M11.1142 40.5619C11.0188 40.2809 10.7167 40.1378 10.441 40.2332C10.1653 40.3292 10.0169 40.6308 10.1176 40.907C10.1918 41.1296 10.3986 41.2621 10.6159 41.2621C10.6742 41.2621 10.7326 41.2568 10.7909 41.2356C11.0665 41.1344 11.2097 40.8375 11.1142 40.5619Z" fill="#0DE2EA"/>
<path d="M35.3138 1.46627C35.3933 1.51398 35.4834 1.54048 35.5735 1.54048C35.7591 1.54048 35.934 1.44506 36.0347 1.27013C36.1778 1.01567 36.093 0.692305 35.8386 0.549176C35.5841 0.400745 35.2608 0.490864 35.1123 0.745316C34.9692 0.999769 35.0593 1.32314 35.3138 1.46627Z" fill="#0DE2EA"/>
<path d="M11.7239 41.9296C11.5807 41.6756 11.2574 41.5797 11.0029 41.7228C10.7485 41.8659 10.6583 42.1893 10.8015 42.4491C10.8969 42.6182 11.0771 42.7194 11.2627 42.7194C11.3528 42.7194 11.4429 42.6982 11.5224 42.6505C11.7769 42.5074 11.867 42.184 11.7239 41.9296Z" fill="#0DE2EA"/>
<path d="M37.2858 3.5814C37.3865 3.74043 37.5615 3.83055 37.7417 3.83055C37.8318 3.83055 37.9272 3.80935 38.0174 3.75634C38.2665 3.60261 38.346 3.27924 38.1923 3.03009C38.0386 2.77563 37.7152 2.69612 37.466 2.84985C37.2116 3.00358 37.1321 3.32695 37.2858 3.5814Z" fill="#0DE2EA"/>
<path d="M36.7981 2.54769C36.9253 2.54769 37.0525 2.50528 37.1532 2.41516C37.3706 2.21902 37.3865 1.87975 37.1904 1.66241C36.9942 1.44506 36.6602 1.42916 36.4429 1.6253C36.2256 1.82144 36.2044 2.16071 36.4058 2.37806C36.5065 2.48938 36.6496 2.54769 36.7981 2.54769Z" fill="#0DE2EA"/>
<path d="M33.9991 1.06338C34.0203 1.06338 34.0415 1.06338 34.068 1.06338C34.3278 1.06338 34.5557 0.867236 34.5929 0.602181C34.63 0.310621 34.4232 0.045566 34.1317 0.00845831C33.8401 -0.0286494 33.575 0.178093 33.5379 0.469654C33.5008 0.761214 33.7076 1.02627 33.9991 1.06338Z" fill="#0DE2EA"/>
<path d="M17.9315 44.5536C17.6452 44.6172 17.465 44.8982 17.5233 45.1839C17.5816 45.4336 17.7989 45.5974 18.0428 45.5974C18.0799 45.5974 18.117 45.5974 18.1594 45.5868C18.4404 45.5232 18.6259 45.2422 18.5623 44.956C18.4987 44.6697 18.2177 44.49 17.9315 44.5536Z" fill="#0DE2EA"/>
<path d="M16.4578 44.6665C16.1609 44.6718 15.9276 44.8531 15.9329 45.1447C15.9383 45.4368 16.1768 45.5449 16.4631 45.5449C16.4684 45.5449 16.4684 45.5449 16.4737 45.5449C16.7652 45.5449 16.9985 45.3891 16.9932 45.098C16.9879 44.8059 16.7493 44.6665 16.4578 44.6665Z" fill="#0DE2EA"/>
<path d="M19.3787 44.1136C19.103 44.2196 18.9652 44.5218 19.0712 44.7975C19.156 45.0095 19.3522 45.1367 19.5695 45.1367C19.6278 45.1367 19.6967 45.1261 19.7551 45.1001H19.7604C20.0307 44.9941 20.1685 44.6914 20.0625 44.4163C19.9565 44.1401 19.649 44.0076 19.3787 44.1136Z" fill="#0DE2EA"/>
<path d="M15.0106 44.5748C14.7296 44.5006 14.4381 44.675 14.3691 44.9613C14.3002 45.2422 14.4752 45.5338 14.7561 45.6027C14.7985 45.6138 14.8409 45.6186 14.8834 45.6186C15.1219 45.6186 15.3392 45.4543 15.3976 45.2157C15.4665 44.93 15.2968 44.6437 15.0106 44.5748Z" fill="#0DE2EA"/>
<path d="M11.8299 43.0905C11.6125 43.2866 11.6019 43.6206 11.7981 43.838C11.9041 43.9493 12.0472 44.0071 12.1904 44.0071C12.3176 44.0071 12.4448 43.9646 12.5508 43.8692C12.7629 43.6731 12.7788 43.3338 12.5773 43.1218C12.3812 42.905 12.0472 42.8891 11.8299 43.0905Z" fill="#0DE2EA"/>
<path d="M13.6906 44.0288C13.4361 43.8804 13.1128 43.9599 12.9643 44.2149C12.8106 44.464 12.8954 44.7927 13.1446 44.9406C13.2294 44.9936 13.3248 45.0148 13.4149 45.0148C13.5952 45.0148 13.7701 44.9247 13.8708 44.7603C14.0192 44.5059 13.9397 44.1825 13.6906 44.0288Z" fill="#0DE2EA"/>
<path d="M32.4777 1.05808C32.4936 1.05808 32.5148 1.05808 32.536 1.05808C32.8222 1.02627 33.0343 0.761216 33.0025 0.474956C32.9707 0.183396 32.7109 -0.0286479 32.4194 0.00315868C32.1278 0.0349653 31.9157 0.294719 31.9476 0.586279C31.9794 0.856635 32.2073 1.05808 32.4777 1.05808Z" fill="#0DE2EA"/>
<path d="M18.4616 10.616C18.292 10.8492 18.3397 11.1832 18.5782 11.3528C18.6736 11.4217 18.785 11.4535 18.891 11.4535C19.0553 11.4535 19.2196 11.3793 19.3204 11.2362C19.49 10.9976 19.4423 10.669 19.2037 10.4993C18.9652 10.3244 18.6365 10.3774 18.4616 10.616Z" fill="#0DE2EA"/>
<path d="M18.4139 12.5297C18.5782 12.2858 18.5146 11.9571 18.2708 11.7928C18.0322 11.6285 17.7035 11.6921 17.5392 11.9359C17.3749 12.1745 17.4385 12.5085 17.677 12.6728C17.7725 12.7311 17.8732 12.7629 17.9739 12.7629C18.1435 12.7629 18.3132 12.6781 18.4139 12.5297Z" fill="#0DE2EA"/>
<path d="M20.2692 9.97983C20.4277 9.77468 20.4049 9.4969 20.2438 9.30871C20.248 9.30341 20.2549 9.30129 20.2586 9.29599C20.423 9.05744 20.3646 8.72877 20.1261 8.55914C19.8876 8.3895 19.5589 8.44781 19.3892 8.69166C19.2461 8.89258 19.2737 9.15233 19.4295 9.33257C19.253 9.56052 19.2954 9.89077 19.5271 10.07C19.6225 10.1442 19.7391 10.1813 19.8504 10.1813C20.0095 10.1813 20.1632 10.1124 20.2692 9.97983Z" fill="#0DE2EA"/>
<path d="M1.49809 20.5449C1.65712 20.5449 1.81086 20.476 1.91688 20.3435C2.09712 20.1102 2.06001 19.7763 1.82676 19.596C1.59351 19.4158 1.26484 19.4582 1.08461 19.6861C0.904368 19.9194 0.941476 20.2534 1.17472 20.4336C1.27014 20.5078 1.38677 20.5449 1.49809 20.5449Z" fill="#0DE2EA"/>
<path d="M39.0034 29.419C39.0511 29.419 39.0988 29.4131 39.1465 29.3978C39.4328 29.3182 39.5918 29.0267 39.5123 28.7457C39.4328 28.4595 39.1412 28.3004 38.8602 28.3805C38.5793 28.4595 38.4149 28.751 38.4945 29.032C38.5581 29.2652 38.7754 29.419 39.0034 29.419Z" fill="#0DE2EA"/>
<path d="M32.7003 29.6946C32.4088 29.737 32.2126 30.0074 32.255 30.2995C32.2974 30.5587 32.5254 30.7501 32.7798 30.7501C32.8063 30.7501 32.8328 30.7448 32.8594 30.7448V30.7389C33.1509 30.6971 33.3471 30.4262 33.3046 30.1346C33.2622 29.8484 32.9919 29.6522 32.7003 29.6946Z" fill="#0DE2EA"/>
<path d="M31.1365 29.9067C30.8503 29.9432 30.6435 30.2083 30.6753 30.5004C30.7125 30.7707 30.9404 30.9669 31.2055 30.9669C31.2267 30.9669 31.2479 30.9616 31.2691 30.9616C31.5606 30.9245 31.7674 30.6594 31.7303 30.3679C31.6932 30.0758 31.4281 29.8696 31.1365 29.9067Z" fill="#0DE2EA"/>
<path d="M0.543882 21.8914C0.602195 21.9126 0.660507 21.9232 0.72412 21.9232C0.941465 21.9232 1.14291 21.7907 1.22242 21.5733C1.31784 21.2924 1.17471 20.9902 0.899056 20.8948C0.623399 20.7941 0.315935 20.9425 0.220515 21.2182C0.125095 21.4938 0.268225 21.796 0.543882 21.8914Z" fill="#0DE2EA"/>
<path d="M48.2008 23.3121C48.0311 23.5453 48.0788 23.8793 48.3121 24.0543C48.4075 24.1232 48.5188 24.1544 48.6302 24.1544C48.7892 24.1544 48.9535 24.0855 49.0542 23.9429C49.2292 23.7097 49.1815 23.3757 48.9429 23.2008C48.7097 23.0258 48.3757 23.0789 48.2008 23.3121Z" fill="#0DE2EA"/>
<path d="M47.1989 24.3935C47.1909 24.4004 47.1883 24.41 47.1808 24.4168C47.2222 23.8661 47.2503 23.3116 47.2503 22.7507C47.2503 20.9701 47.0324 19.2403 46.6311 17.5816C46.6518 17.5668 46.6762 17.5578 46.6947 17.5397C46.7955 17.439 46.8485 17.3012 46.8485 17.1633C46.8485 17.0202 46.7955 16.8877 46.6947 16.787C46.612 16.7043 46.4991 16.664 46.3836 16.6513C45.1776 12.4793 42.7693 8.81571 39.5568 6.05861C39.5314 5.9722 39.4921 5.8895 39.4269 5.8243C39.3448 5.74213 39.234 5.7029 39.1195 5.68912C38.9286 5.5338 38.7351 5.38166 38.539 5.23269C38.5899 5.22633 38.6408 5.22103 38.6901 5.19877C38.9604 5.08214 39.0771 4.76938 38.9604 4.49902C38.8385 4.23397 38.5257 4.11204 38.2607 4.23397C38.0301 4.33363 37.9214 4.57907 37.9638 4.81391C35.5873 3.12445 32.8636 1.89406 29.921 1.25528C29.9146 1.23407 29.9157 1.21181 29.9062 1.19114C29.7895 0.92078 29.4768 0.804155 29.2117 0.920779C29.1301 0.957357 29.0675 1.01514 29.0156 1.08034C27.791 0.868298 26.5347 0.751144 25.2507 0.751144C17.4565 0.751144 10.6011 4.82928 6.6921 10.96C6.5389 10.9478 6.38093 10.9902 6.26908 11.0989C6.17366 11.1943 6.11534 11.3321 6.11534 11.4753C6.11534 11.576 6.15457 11.6709 6.20864 11.7552C5.1956 13.5029 4.41369 15.4002 3.91062 17.4083C3.76378 17.4014 3.61429 17.4459 3.5072 17.5503C3.41178 17.6458 3.35347 17.7836 3.35347 17.9267C3.35347 18.0645 3.41178 18.2024 3.5072 18.2978C3.55809 18.3487 3.618 18.3884 3.68267 18.4155C3.40118 19.8176 3.25169 21.2669 3.25169 22.7507C3.25169 23.9291 3.34764 25.0858 3.52682 26.215C3.28827 26.0846 2.98929 26.1466 2.83396 26.3767C2.66963 26.6152 2.73324 26.9439 2.97709 27.1135C3.06721 27.1718 3.17323 27.2036 3.27395 27.2036C3.42292 27.2036 3.56552 27.1352 3.67048 27.0186C4.56742 31.5627 6.86916 35.6048 10.1018 38.6805C10.0965 38.6816 10.0912 38.6795 10.0859 38.6805C9.79961 38.7388 9.61407 39.0198 9.67238 39.306C9.72539 39.5557 9.94804 39.7307 10.1919 39.7307C10.229 39.7307 10.2661 39.7248 10.3032 39.7195C10.537 39.6676 10.6955 39.4688 10.714 39.2424C13.4897 41.6921 16.884 43.4536 20.6313 44.2583C20.6446 44.2748 20.652 44.296 20.6674 44.3103C20.7628 44.4105 20.9006 44.464 21.0385 44.464C21.1334 44.464 21.2203 44.4327 21.2998 44.3877C22.5827 44.6215 23.9021 44.7503 25.2518 44.7503C28.0009 44.7503 30.6313 44.2392 33.0592 43.3142C33.0767 43.3386 33.0873 43.3672 33.1091 43.3879C33.2045 43.4886 33.3423 43.5469 33.4855 43.5469C33.6233 43.5469 33.7611 43.4891 33.8565 43.3932C33.9573 43.293 34.0156 43.1552 34.0156 43.0168C34.0156 42.9871 34.0034 42.9606 33.9981 42.932C36.3348 41.9152 38.4595 40.5041 40.2926 38.7834C40.3901 38.9026 40.5327 38.9827 40.6949 38.9827C40.7109 38.9827 40.7268 38.9827 40.7427 38.9768C41.0342 38.9503 41.2516 38.6964 41.2251 38.4049C41.2118 38.2612 41.1413 38.1361 41.0395 38.0486C44.3681 34.6146 46.5919 30.1044 47.1252 25.0943C47.1358 25.1092 47.1395 25.1272 47.1522 25.141C47.2582 25.2576 47.4014 25.3212 47.5498 25.3212C47.677 25.3212 47.799 25.2735 47.8997 25.1887C48.1223 24.9925 48.1382 24.6586 47.9474 24.4359C47.7502 24.2186 47.4162 24.1968 47.1989 24.3935ZM25.2513 43.6895C19.4911 43.6895 14.2674 41.3512 10.4776 37.5742C10.4776 37.5715 10.4787 37.5694 10.4781 37.5668C10.4516 37.3224 10.2624 37.1469 10.0313 37.1087C7.62298 34.5578 5.84499 31.4069 4.95493 27.9034C5.01802 27.8578 5.07421 27.8011 5.11344 27.7279C5.24596 27.4682 5.14524 27.1448 4.88549 27.0123C4.83831 26.9873 4.78848 26.9783 4.73865 26.9688C4.45875 25.6059 4.31138 24.1947 4.31138 22.7502C4.31138 15.8026 7.71522 9.63844 12.94 5.82695C12.9898 5.80256 13.0343 5.77076 13.0741 5.73153C16.5082 3.26758 20.7114 1.81083 25.2507 1.81083C26.0194 1.81083 26.7774 1.85536 27.5249 1.93647C27.4655 2.08225 27.4639 2.24924 27.5472 2.39342C27.6479 2.56836 27.8228 2.65848 28.0084 2.65848C28.0985 2.65848 28.1886 2.63728 28.2734 2.58957C28.4621 2.4793 28.5565 2.27309 28.5348 2.07006C38.5263 3.65138 46.1906 12.3213 46.1906 22.7502C46.1906 23.6137 46.1318 24.463 46.03 25.2995C46.0173 25.3064 46.0029 25.3074 45.9907 25.3159C45.7469 25.4802 45.6833 25.8089 45.8476 26.0528C45.8667 26.0814 45.8906 26.1052 45.9144 26.1286C45.265 30.1129 43.4876 33.7219 40.9213 36.6184C40.8132 36.4164 40.5895 36.2998 40.3557 36.3475C40.0641 36.4058 39.8839 36.682 39.9422 36.9736C39.9751 37.1458 40.0943 37.2778 40.2454 37.3457C36.4387 41.2547 31.1254 43.6895 25.2513 43.6895Z" fill="#0DE2EA"/>
<path d="M16.9614 30.1028C16.6699 30.0705 16.4101 30.283 16.3836 30.5746C16.3518 30.8662 16.5638 31.1259 16.8554 31.1577C16.8713 31.1577 16.8925 31.1577 16.9084 31.1577C17.1788 31.1577 17.4067 30.9563 17.4385 30.6812C17.465 30.3891 17.253 30.1293 16.9614 30.1028Z" fill="#0DE2EA"/>
<path d="M29.5674 30.0816C29.2811 30.1134 29.0638 30.3732 29.0956 30.6647C29.1221 30.9351 29.35 31.1418 29.6204 31.1418C29.6416 31.1418 29.6575 31.1418 29.6734 31.136C29.9649 31.1095 30.177 30.8503 30.1505 30.5582C30.1187 30.2671 29.8589 30.0551 29.5674 30.0816Z" fill="#0DE2EA"/>
<path d="M35.8015 29.1327C35.5153 29.1905 35.335 29.472 35.3933 29.7582C35.4463 30.0127 35.669 30.1823 35.9128 30.1823C35.9499 30.1823 35.9871 30.177 36.0242 30.1717C36.3104 30.1081 36.4907 29.8271 36.4323 29.5409C36.374 29.2546 36.0878 29.0691 35.8015 29.1327Z" fill="#0DE2EA"/>
<path d="M3.00886 18.5305C2.81802 18.3079 2.48405 18.2814 2.2614 18.4722C2.03876 18.663 2.01225 18.997 2.20309 19.2196C2.30911 19.3416 2.45754 19.4052 2.60597 19.4052C2.7279 19.4052 2.84983 19.3628 2.95055 19.278C3.17319 19.0871 3.1997 18.7532 3.00886 18.5305Z" fill="#0DE2EA"/>
<path d="M34.2589 29.4343C33.9673 29.4879 33.7765 29.763 33.8295 30.0493C33.8772 30.309 34.0999 30.4893 34.349 30.4893C34.3808 30.4893 34.4126 30.484 34.4444 30.4787C34.7307 30.4251 34.9268 30.15 34.8738 29.8637C34.8208 29.5727 34.5452 29.3819 34.2589 29.4343Z" fill="#0DE2EA"/>
<path d="M0.591581 23.487C0.883141 23.4499 1.08988 23.1902 1.05808 22.8991C1.02627 22.607 0.761216 22.4008 0.474956 22.4321C0.183396 22.4639 -0.0286479 22.7237 0.00315867 23.0152C0.0349653 23.2856 0.262913 23.487 0.527968 23.487C0.549172 23.487 0.570376 23.487 0.591581 23.487Z" fill="#0DE2EA"/>
<path d="M44.9247 27.1024C45.0095 27.1024 45.0943 27.0865 45.1738 27.0388C45.4336 26.9009 45.529 26.5776 45.3912 26.3231C45.248 26.0634 44.93 25.9674 44.6702 26.1058C44.4105 26.2436 44.315 26.567 44.4582 26.8262C44.5536 27.0017 44.7338 27.1024 44.9247 27.1024Z" fill="#0DE2EA"/>
<path d="M1.65179 25.3106C1.45034 25.5221 1.45564 25.8561 1.66769 26.0634C1.76841 26.1588 1.90094 26.2065 2.03346 26.2065C2.17129 26.2065 2.30912 26.1535 2.41514 26.0475C2.61659 25.8354 2.61128 25.5015 2.39924 25.3C2.1872 25.0933 1.85323 25.0986 1.65179 25.3106Z" fill="#0DE2EA"/>
<path d="M1.49808 24.1756C1.34965 23.9265 1.02628 23.8417 0.771829 23.9901C0.522677 24.1332 0.43786 24.4619 0.580989 24.7111C0.68171 24.8802 0.856646 24.9761 1.04218 24.9761C1.1323 24.9761 1.22242 24.9491 1.30724 24.9014C1.56169 24.754 1.64651 24.4306 1.49808 24.1756Z" fill="#0DE2EA"/>
<path d="M48.7415 19.7922C48.8581 19.7922 48.9747 19.7551 49.0701 19.6755C49.3034 19.4953 49.3405 19.1613 49.1549 18.9334C48.9747 18.7054 48.6407 18.6683 48.4075 18.8486C48.1795 19.0341 48.1424 19.3681 48.328 19.596C48.434 19.7233 48.5877 19.7922 48.7415 19.7922Z" fill="#0DE2EA"/>
<path d="M18.5305 30.2353C18.2389 30.2141 17.9898 30.4315 17.9686 30.7283C17.9474 31.0199 18.1647 31.2744 18.4563 31.2956C18.4669 31.2956 18.4828 31.2956 18.4934 31.2956C18.7691 31.2956 19.0023 31.0835 19.0235 30.802C19.0447 30.511 18.8274 30.2565 18.5305 30.2353Z" fill="#0DE2EA"/>
<path d="M47.6176 18.6683C47.7661 18.6683 47.9198 18.6047 48.0205 18.4828C48.2114 18.2548 48.1849 17.9209 47.9569 17.7353C47.7343 17.5445 47.4003 17.5763 47.2095 17.799C47.0239 18.0216 47.0504 18.3556 47.2784 18.5464C47.3738 18.6312 47.4957 18.6683 47.6176 18.6683Z" fill="#0DE2EA"/>
<path d="M27.9983 30.2194C27.7067 30.2406 27.4841 30.4951 27.5053 30.7866C27.5265 31.0671 27.7598 31.2796 28.0354 31.2796C28.0513 31.2796 28.0619 31.2797 28.0778 31.2743C28.3694 31.2531 28.5867 30.9982 28.5655 30.7071C28.5443 30.4161 28.2899 30.1982 27.9983 30.2194Z" fill="#0DE2EA"/>
<path d="M12.2911 29.4131C11.9995 29.3601 11.7239 29.5457 11.6656 29.8319C11.6072 30.1182 11.7928 30.3991 12.0843 30.458C12.1161 30.4633 12.1533 30.4686 12.1851 30.4686C12.4342 30.4686 12.6569 30.2936 12.7046 30.0392C12.7629 29.7529 12.5773 29.472 12.2911 29.4131Z" fill="#0DE2EA"/>
<path d="M48.9482 20.7782C49.0066 21.0273 49.2239 21.1917 49.4677 21.1917C49.5049 21.1917 49.542 21.1917 49.5844 21.1811C49.8706 21.1174 50.0509 20.8365 49.9873 20.5502C49.9236 20.264 49.6374 20.0837 49.3564 20.1473C49.0702 20.211 48.8846 20.4919 48.9482 20.7782Z" fill="#0DE2EA"/>
<path d="M20.1102 30.3308C19.8186 30.3149 19.5695 30.5428 19.5536 30.8344C19.543 31.1259 19.7656 31.3751 20.0625 31.391C20.0694 31.391 20.0752 31.391 20.0837 31.391C20.3647 31.391 20.5979 31.1683 20.6138 30.8821C20.6244 30.5905 20.4018 30.3408 20.1102 30.3308Z" fill="#0DE2EA"/>
<path d="M26.4185 30.3148C26.2346 30.3249 26.0862 30.4331 25.9987 30.581L20.9409 26.7175L21.207 30.6748C21.171 30.7448 21.1455 30.8206 21.1445 30.9038C21.1424 31.0167 21.1837 31.1164 21.2431 31.2038L21.558 35.8911L26.1604 31.2065C26.2452 31.2627 26.3417 31.2319 26.4504 31.2319C26.4557 31.2319 26.4663 31.2319 26.4769 31.2319C26.7631 31.2319 26.9911 31.0384 26.9752 30.7469C26.9593 30.4553 26.7101 30.3042 26.4185 30.3148Z" fill="#0DE2EA"/>
<path d="M15.3976 29.9226C15.106 29.8802 14.841 30.0869 14.8039 30.3779C14.7615 30.6695 14.9682 30.9345 15.2598 30.9717C15.281 30.977 15.3075 30.977 15.3287 30.977C15.5884 30.977 15.8164 30.7808 15.8535 30.5158C15.8906 30.2247 15.6838 29.9597 15.3976 29.9226Z" fill="#0DE2EA"/>
<path d="M13.8391 29.6946C13.5475 29.6469 13.2771 29.8431 13.2294 30.1293C13.1817 30.4209 13.3779 30.6912 13.6694 30.7384C13.6959 30.7442 13.7224 30.7442 13.7542 30.7442C14.0087 30.7442 14.2313 30.564 14.2738 30.3042C14.3215 30.0127 14.1253 29.7418 13.8391 29.6946Z" fill="#0DE2EA"/>
<path d="M9.59815 29.3394C9.68297 29.0585 9.51863 28.7669 9.23768 28.6821C8.95672 28.6031 8.65986 28.7669 8.58034 29.0479C8.50082 29.3288 8.66516 29.6257 8.94612 29.7052C8.99383 29.7158 9.04154 29.7264 9.08925 29.7264C9.32249 29.7264 9.53454 29.5727 9.59815 29.3394Z" fill="#0DE2EA"/>
<path d="M49.5155 21.7218C49.2398 21.6369 48.9429 21.7907 48.8528 22.0716C48.768 22.3526 48.9217 22.6495 49.2027 22.7343C49.2557 22.7502 49.3087 22.7608 49.3617 22.7608C49.5844 22.7608 49.7964 22.6129 49.8653 22.3844C49.9554 22.1087 49.7964 21.8119 49.5155 21.7218Z" fill="#0DE2EA"/>
<path d="M10.7538 29.0792C10.5709 29.0352 10.3944 29.0998 10.2698 29.2207C10.115 29.287 9.98939 29.4168 9.95334 29.5939C9.89503 29.8855 10.0806 30.1606 10.3668 30.2194C10.4039 30.2247 10.441 30.23 10.4729 30.23C10.6096 30.23 10.7347 30.1744 10.8307 30.0858C10.9823 30.0228 11.1047 29.8934 11.1456 29.7211C11.215 29.4343 11.0401 29.1481 10.7538 29.0792Z" fill="#0DE2EA"/>
<path d="M7.74807 28.2156C7.74277 28.2156 7.74277 28.2156 7.74277 28.2156C7.46712 28.1202 7.16495 28.2692 7.06953 28.5443C6.97411 28.8205 7.12254 29.1221 7.3982 29.218C7.45651 29.2393 7.51483 29.2499 7.57314 29.2499C7.79048 29.2499 7.99723 29.112 8.07144 28.8894C8.16686 28.6132 8.02373 28.311 7.74807 28.2156Z" fill="#0DE2EA"/>
<path d="M6.29026 27.6643C6.0199 27.553 5.70713 27.6802 5.59581 27.9506C5.48449 28.2156 5.61171 28.5284 5.88207 28.6455V28.6397C5.94568 28.672 6.0146 28.6821 6.08351 28.6821C6.29026 28.6821 6.4864 28.5607 6.57121 28.3593C6.68784 28.0879 6.56061 27.7751 6.29026 27.6643Z" fill="#0DE2EA"/>
<path d="M38.8072 30.5958C38.68 30.3308 38.3672 30.2194 38.1022 30.3467C37.8371 30.468 37.7258 30.7866 37.8477 31.0517C37.9431 31.242 38.134 31.3533 38.3301 31.3533C38.4043 31.3533 38.4839 31.338 38.5581 31.3003C38.8231 31.1784 38.9345 30.8609 38.8072 30.5958Z" fill="#0DE2EA"/>
<path d="M37.307 27.7173C37.1586 27.4629 36.8352 27.3727 36.5807 27.5159C36.3263 27.6638 36.2362 27.9877 36.3846 28.2416C36.48 28.4112 36.6603 28.5066 36.8458 28.5066C36.9306 28.5066 37.0207 28.4854 37.1056 28.4377C37.36 28.2951 37.4501 27.9718 37.307 27.7173Z" fill="#0DE2EA"/>
<path d="M37.8583 29.859C38.1181 29.7206 38.2188 29.4031 38.081 29.1428C38.0205 29.0246 37.9182 28.9445 37.8027 28.8995C37.6765 28.7934 37.509 28.741 37.3388 28.7823C37.0526 28.8512 36.8829 29.1375 36.9518 29.4237C36.9937 29.596 37.1199 29.7264 37.2757 29.7874C37.3717 29.868 37.491 29.9162 37.6145 29.9162C37.694 29.9173 37.7788 29.8955 37.8583 29.859Z" fill="#0DE2EA"/>
<path d="M39.4751 32.0801C39.3585 31.8098 39.0511 31.6825 38.7807 31.7992C38.5103 31.911 38.3831 32.2238 38.4997 32.4941C38.5846 32.6956 38.7807 32.8175 38.9874 32.8175C39.0564 32.8175 39.1253 32.8064 39.1942 32.7751C39.4645 32.6632 39.5865 32.3499 39.4751 32.0801Z" fill="#0DE2EA"/>
<path d="M35.616 24.9496C35.4569 24.7005 35.1283 24.6315 34.8844 24.7906C34.6406 24.9496 34.5717 25.2783 34.7307 25.528C34.8314 25.6817 35.0011 25.766 35.176 25.766C35.2714 25.766 35.3721 25.7395 35.4622 25.6817C35.7061 25.5221 35.775 25.1935 35.616 24.9496Z" fill="#0DE2EA"/>
<path d="M8.02372 6.05702C8.11384 6.05702 8.20396 6.03581 8.28878 5.9881C8.53793 5.83967 8.62805 5.5163 8.47962 5.26185C8.33649 5.0074 8.00782 4.92258 7.75867 5.06571C7.50422 5.21414 7.4141 5.53751 7.56253 5.79196C7.65795 5.9616 7.83818 6.05702 8.02372 6.05702Z" fill="#0DE2EA"/>
<path d="M11.0771 5.56401C11.0984 5.56931 11.1196 5.56931 11.1408 5.56931C11.4058 5.56931 11.6338 5.36787 11.6656 5.10282C11.6974 4.81125 11.4906 4.5462 11.1991 4.51439C10.9075 4.47729 10.6478 4.68403 10.6106 4.97559C10.5788 5.26715 10.7856 5.5322 11.0771 5.56401Z" fill="#0DE2EA"/>
<path d="M40.2173 35.8169C40.5035 35.7326 40.6626 35.4405 40.5831 35.1601C40.4982 34.8791 40.2067 34.7142 39.9257 34.799C39.6448 34.8786 39.4804 35.1754 39.56 35.4564C39.5653 35.4564 39.5653 35.4564 39.5653 35.4564C39.6289 35.6843 39.8409 35.8381 40.0742 35.8381C40.1219 35.8381 40.1696 35.8333 40.2173 35.8169Z" fill="#0DE2EA"/>
<path d="M9.53985 5.56401C9.56105 5.56401 9.58226 5.56401 9.60876 5.55871C9.89502 5.5216 10.1018 5.25655 10.0647 4.96499C10.0276 4.67343 9.7572 4.47199 9.47094 4.50909C9.17938 4.5462 8.97263 4.81126 9.01504 5.10282C9.04685 5.36787 9.27479 5.56401 9.53985 5.56401Z" fill="#0DE2EA"/>
<path d="M6.56588 10.3827C6.57118 10.3827 6.57648 10.3827 6.57648 10.3827C6.86804 10.3774 7.10129 10.1389 7.09599 9.842C7.09069 9.55044 6.85214 9.31719 6.56058 9.32249C6.26371 9.32779 6.03577 9.57164 6.03577 9.8632H6.04107C6.04107 10.1548 6.27962 10.3827 6.56588 10.3827Z" fill="#0DE2EA"/>
<path d="M6.5659 8.77648C6.5871 8.78178 6.60301 8.78178 6.61891 8.78178C6.88927 8.78178 7.12251 8.57504 7.14902 8.29938C7.17553 8.00782 6.96348 7.74806 6.67192 7.72156C6.38036 7.69505 6.12061 7.9071 6.0941 8.19866C6.06229 8.49022 6.27434 8.74997 6.5659 8.77648Z" fill="#0DE2EA"/>
<path d="M6.76207 7.18084C6.83099 7.20735 6.8946 7.21795 6.96352 7.21795C7.17026 7.21795 7.3717 7.09603 7.45652 6.88928C7.56784 6.61893 7.43531 6.31146 7.16496 6.20014C6.8999 6.08352 6.58714 6.21604 6.47582 6.4864C6.36449 6.75676 6.49172 7.06422 6.76207 7.18084Z" fill="#0DE2EA"/>
<path d="M39.7509 34.2801C40.0265 34.1793 40.1696 33.8772 40.0742 33.6015C39.9735 33.3259 39.666 33.1827 39.3904 33.2835C39.12 33.3837 38.9769 33.6863 39.0723 33.9615C39.1518 34.1788 39.3533 34.3113 39.5706 34.3113C39.6342 34.3119 39.6925 34.3013 39.7509 34.2801Z" fill="#0DE2EA"/>
<path d="M18.2071 8.54853C18.2919 8.60684 18.3927 8.63335 18.4881 8.63335C18.663 8.63335 18.8326 8.54323 18.9387 8.3842C19.0924 8.14035 19.0235 7.81168 18.7743 7.65265C18.5252 7.49891 18.2018 7.56783 18.0428 7.81698C17.8837 8.06083 17.958 8.3895 18.2071 8.54853Z" fill="#0DE2EA"/>
<path d="M15.4612 6.99531C15.5354 7.03242 15.6149 7.05362 15.6945 7.05362C15.8906 7.05362 16.0814 6.9423 16.1716 6.75676C16.2988 6.4917 16.1928 6.17364 15.9277 6.04641C15.6679 5.91388 15.3499 6.02521 15.2174 6.29026C15.0901 6.55002 15.2015 6.86808 15.4612 6.99531Z" fill="#0DE2EA"/>
<path d="M30.7761 18.4722H30.7708C30.5852 18.2495 30.2513 18.2177 30.0233 18.4086C29.8007 18.5994 29.7742 18.9334 29.965 19.156C30.071 19.2833 30.2194 19.3416 30.3679 19.3416C30.4898 19.3416 30.6117 19.3045 30.7124 19.2196C30.9351 19.0288 30.9616 18.6948 30.7761 18.4722Z" fill="#0DE2EA"/>
<path d="M32.711 21.7324C32.9389 21.5521 32.9866 21.2182 32.8064 20.9902V20.9849C32.6262 20.757 32.2975 20.7146 32.0642 20.8895C31.831 21.0697 31.7886 21.4037 31.9688 21.637C31.9688 21.6316 31.9688 21.6316 31.9688 21.6316C32.0695 21.7695 32.2286 21.8384 32.3876 21.8384C32.4989 21.8384 32.6155 21.8066 32.711 21.7324Z" fill="#0DE2EA"/>
<path d="M23.6143 12.4872C23.7627 12.4872 23.9111 12.4289 24.0171 12.307C24.208 12.0844 24.1815 11.7504 23.9588 11.5596H23.9641C23.7415 11.3687 23.4075 11.3899 23.2167 11.6126C23.0205 11.8352 23.047 12.1692 23.2697 12.36C23.3704 12.4448 23.4923 12.4872 23.6143 12.4872Z" fill="#0DE2EA"/>
<path d="M21.9709 10.5948C21.7907 10.8227 21.8225 11.1567 22.0504 11.3422C22.1511 11.4217 22.2677 11.4588 22.3844 11.4588C22.5381 11.4588 22.6918 11.3899 22.7979 11.2627C22.9834 11.0348 22.9463 10.7008 22.7183 10.5152C22.4904 10.3297 22.1564 10.3668 21.9709 10.5948Z" fill="#0DE2EA"/>
<path d="M16.8501 7.73216C16.8554 7.73216 16.8554 7.73216 16.8554 7.73216C16.9349 7.77987 17.025 7.80108 17.1151 7.80108C17.3007 7.80108 17.4756 7.70566 17.5763 7.53602C17.7194 7.28157 17.6293 6.9582 17.3749 6.80977C17.1204 6.66664 16.7971 6.75676 16.6539 7.01121C16.5108 7.26567 16.5956 7.58903 16.8501 7.73216Z" fill="#0DE2EA"/>
<path d="M27.5 14.8833C27.2985 14.6766 26.9593 14.6713 26.7525 14.878C26.5458 15.0848 26.5405 15.4188 26.7472 15.6308C26.8479 15.7315 26.9858 15.7845 27.1236 15.7845C27.2561 15.7845 27.394 15.7368 27.4947 15.6361C27.7014 15.4294 27.7067 15.0954 27.5 14.8833Z" fill="#0DE2EA"/>
<path d="M29.6681 18.0004C29.8855 17.8043 29.9067 17.4703 29.7105 17.2476C29.5197 17.0303 29.1804 17.0144 28.9631 17.2052C28.7457 17.4014 28.7245 17.7353 28.9207 17.9527C29.0267 18.0746 29.1698 18.1329 29.3182 18.1329C29.4402 18.1329 29.5674 18.0905 29.6681 18.0004Z" fill="#0DE2EA"/>
<path d="M21.5468 10.2555C21.7218 10.0222 21.674 9.69357 21.4408 9.51333C21.2075 9.33839 20.8736 9.3861 20.6986 9.61935C20.5237 9.8526 20.5661 10.1866 20.7994 10.3615C20.9001 10.4304 21.0114 10.4675 21.1227 10.4675C21.2818 10.4675 21.4408 10.3933 21.5468 10.2555Z" fill="#0DE2EA"/>
<path d="M27.871 16.0284C27.659 16.2298 27.6484 16.5638 27.8445 16.7811C27.9506 16.8925 28.0937 16.9455 28.2315 16.9455C28.364 16.9455 28.4913 16.8978 28.5973 16.8023C28.8093 16.6009 28.8199 16.2669 28.6185 16.0549C28.4224 15.8375 28.0831 15.8269 27.871 16.0284Z" fill="#0DE2EA"/>
<path d="M14.0352 6.36448C14.0988 6.39098 14.1624 6.40159 14.2313 6.40159C14.4381 6.40159 14.6395 6.27436 14.7243 6.06762C14.8303 5.79196 14.6978 5.4845 14.4222 5.37847C14.1518 5.27245 13.8443 5.40498 13.7383 5.67534C13.627 5.94569 13.7595 6.25846 14.0352 6.36448Z" fill="#0DE2EA"/>
<path d="M30.9828 20.3859C31.0835 20.5131 31.2373 20.582 31.391 20.582C31.5076 20.582 31.6295 20.5396 31.725 20.4601C31.9529 20.2799 31.99 19.9459 31.8045 19.718C31.6189 19.49 31.285 19.4529 31.0623 19.6384C30.8344 19.824 30.7973 20.1579 30.9828 20.3859Z" fill="#0DE2EA"/>
<path d="M36.655 43.2808C36.3634 43.2442 36.0984 43.4504 36.0613 43.742C36.0295 44.0336 36.2362 44.2986 36.5278 44.3357C36.549 44.3357 36.5702 44.3357 36.5914 44.3357C36.8564 44.3357 37.0844 44.1396 37.1162 43.8692C37.148 43.5782 36.9466 43.3184 36.655 43.2808Z" fill="#0DE2EA"/>
<path d="M40.5672 41.1238C40.2915 41.0231 39.9894 41.1662 39.8886 41.4366C39.7879 41.7122 39.9311 42.0197 40.2067 42.1204C40.265 42.1416 40.3286 42.1522 40.3869 42.1522C40.6043 42.1522 40.8057 42.0197 40.8852 41.8023C40.986 41.5267 40.8428 41.2245 40.5672 41.1238Z" fill="#0DE2EA"/>
<path d="M39.1783 42.6134C38.9715 42.8254 38.9768 43.1594 39.1889 43.3608C39.2949 43.461 39.4274 43.5093 39.56 43.5093C39.6978 43.5093 39.8356 43.4557 39.9416 43.3497C40.1431 43.1382 40.1378 42.8042 39.9257 42.597C39.7137 42.3961 39.3797 42.4008 39.1783 42.6134Z" fill="#0DE2EA"/>
<path d="M24.4253 12.6675C24.2239 12.8848 24.2398 13.2188 24.4571 13.4202C24.4571 13.4149 24.4571 13.4149 24.4571 13.4149C24.5579 13.5104 24.6851 13.5581 24.8123 13.5581C24.9555 13.5581 25.1039 13.4998 25.2046 13.3831C25.4007 13.1658 25.3901 12.8318 25.1728 12.6357C24.9555 12.4395 24.6215 12.4501 24.4253 12.6675Z" fill="#0DE2EA"/>
<path d="M33.7765 22.2837C33.6068 22.0451 33.2729 21.9921 33.0396 22.1671C32.8011 22.3367 32.7481 22.6707 32.923 22.9092C33.0237 23.047 33.188 23.1266 33.3471 23.1266C33.4584 23.1266 33.5697 23.0894 33.6598 23.0205C33.8984 22.8504 33.9514 22.5169 33.7765 22.2837Z" fill="#0DE2EA"/>
<path d="M35.1548 42.9733C34.8738 42.8944 34.5823 43.0635 34.508 43.3444C34.4285 43.6307 34.5982 43.9169 34.8791 43.9965C34.9268 44.0071 34.9745 44.0118 35.0169 44.0118C35.2502 44.0118 35.4675 43.8581 35.5311 43.6201C35.6054 43.3397 35.441 43.0481 35.1548 42.9733Z" fill="#0DE2EA"/>
<path d="M38.065 43.2495C37.7841 43.3131 37.6038 43.5936 37.6674 43.8798C37.7258 44.1295 37.9431 44.2933 38.187 44.2933C38.2241 44.2933 38.2665 44.288 38.3036 44.2774C38.5898 44.2143 38.7701 43.9334 38.7012 43.6471C38.6375 43.3609 38.3513 43.1806 38.065 43.2495Z" fill="#0DE2EA"/>
<path d="M40.7528 39.5276C40.4612 39.5011 40.2067 39.7185 40.1855 40.01C40.159 40.3016 40.3764 40.5613 40.6679 40.5826C40.6838 40.5826 40.6997 40.5826 40.7103 40.5826C40.986 40.5826 41.2193 40.371 41.2405 40.0949C41.2617 39.8038 41.0443 39.5488 40.7528 39.5276Z" fill="#0DE2EA"/>
<path d="M25.6022 13.7595C25.4007 13.9716 25.406 14.3055 25.6181 14.507C25.7188 14.6077 25.8513 14.6554 25.9838 14.6554C26.1217 14.6554 26.2595 14.6024 26.3655 14.4964C26.567 14.2843 26.5617 13.9504 26.3549 13.7436C26.1429 13.5422 25.8036 13.5475 25.6022 13.7595Z" fill="#0DE2EA"/>
<path d="M33.8454 24.208C33.9461 24.3564 34.1104 24.4359 34.2801 24.4359C34.3808 24.4359 34.4868 24.4041 34.5822 24.3405C34.8208 24.1756 34.8791 23.8422 34.7147 23.6031C34.5504 23.3593 34.2164 23.3015 33.9779 23.4653C33.734 23.6349 33.6757 23.9636 33.8401 24.2075C33.8454 24.208 33.8454 24.208 33.8454 24.208Z" fill="#0DE2EA"/>
<path d="M35.5735 26.8691C35.5788 26.8691 35.5788 26.8691 35.5788 26.8691C35.6743 27.034 35.8492 27.1236 36.0294 27.1236C36.1249 27.1236 36.2203 27.0971 36.3051 27.0488C36.5542 26.8951 36.6338 26.567 36.48 26.3173C36.3316 26.0681 36.0029 25.9886 35.7538 26.1424C35.5046 26.2961 35.4251 26.62 35.5735 26.8691Z" fill="#0DE2EA"/>
<path d="M43.2379 27.7369C43.3158 27.7809 43.4028 27.8074 43.4934 27.8074C43.5676 27.8074 43.6418 27.7915 43.7107 27.7597C43.9811 27.6426 44.0977 27.325 43.9811 27.06C43.8592 26.7949 43.5464 26.673 43.2761 26.7949C43.266 26.7992 43.2602 26.8082 43.2506 26.8129L38.8724 24.8478L40.9123 31.4986L43.2379 27.7369Z" fill="#0DE2EA"/>
</svg>
